<svg xmlns="http://www.w3.org/2000/svg" xmlns:xlink="http://www.w3.org/1999/xlink"><symbol id="sprite">
  <!-- <symbol id="checkbox-mark" viewBox="0 0 12 8">
    <path d="M1 2.5L5.28571 7L11 1" fill="currentColor"/>
  </symbol> -->

  <symbol id="search" viewBox="0 0 21 21">
    <path d="M1.99886 8C1.99886 6.4087 2.631 4.88258 3.75622 3.75736C4.88143 2.63214 6.40756 2 7.99886 2C9.59015 2 11.1163 2.63214 12.2415 3.75736C13.3667 4.88258 13.9989 6.4087 13.9989 8C13.9989 9.5913 13.3667 11.1174 12.2415 12.2426C11.1163 13.3679 9.59015 14 7.99886 14C6.40756 14 4.88143 13.3679 3.75622 12.2426C2.631 11.1174 1.99886 9.5913 1.99886 8ZM7.99886 0C6.72572 0.000182277 5.471 0.304218 4.339 0.886839C3.20699 1.46946 2.23038 2.31384 1.49034 3.3498C0.750296 4.38577 0.268189 5.5834 0.0840862 6.84315C-0.100017 8.10291 0.0192008 9.38842 0.431832 10.5928C0.844462 11.7973 1.53859 12.8858 2.45652 13.768C3.37446 14.6502 4.48969 15.3006 5.70953 15.6651C6.92938 16.0296 8.2186 16.0977 9.47006 15.8638C10.7215 15.6298 11.8991 15.1006 12.9049 14.32L18.4339 19.85C18.6215 20.0375 18.8759 20.1428 19.1412 20.1427C19.4065 20.1426 19.6608 20.0371 19.8484 19.8495C20.0359 19.6619 20.1412 19.4074 20.1411 19.1421C20.141 18.8769 20.0355 18.6225 19.8479 18.435L14.3179 12.905C15.2356 11.7225 15.8032 10.3063 15.9561 8.81726C16.109 7.32825 15.8411 5.82621 15.1829 4.48188C14.5246 3.13754 13.5024 2.00485 12.2324 1.21256C10.9625 0.420272 9.4957 0.000166004 7.99886 0Z"/>
  </symbol>

  <symbol id="accordion-arrow" viewBox="0 0 16 10">
    <path d="M15.3417 8.91208C14.966 9.29821 14.3477 9.30437 13.9644 8.92579L8.14183 3.17475C8.06342 3.0973 7.93715 3.09788 7.85945 3.17603L2.15281 8.91591C1.76725 9.30371 1.14293 9.3137 0.745162 8.93845C0.335488 8.55196 0.321627 7.90488 0.714373 7.5012L7.28326 0.749487C7.67588 0.345934 8.32412 0.345934 8.71674 0.749487L15.3417 7.55884C15.7082 7.93549 15.7082 8.53542 15.3417 8.91208Z"/>
  </symbol>

  <symbol id="heart" viewBox="0 0 20 16">
    <path d="M3.03386 2.05857C2.2658 2.75224 1.76675 3.83284 1.99484 5.42928C2.22323 7.02783 3.26485 8.68522 4.80427 10.3478C6.25856 11.9184 8.10953 13.4437 9.99986 14.874C11.8902 13.4437 13.7412 11.9184 15.1955 10.3478C16.7349 8.68521 17.7765 7.02783 18.0049 5.4293C18.2329 3.83285 17.7339 2.75224 16.9658 2.05856C16.1765 1.34572 15.0549 1 13.9999 1C12.1318 1 11.0922 2.08479 10.5176 2.68443C10.458 2.7466 10.4034 2.80356 10.3534 2.85355C10.1582 3.04882 9.84157 3.04882 9.64631 2.85355C9.59632 2.80356 9.54173 2.7466 9.48215 2.68443C8.90748 2.08479 7.86788 1 5.99986 1C4.94486 1 3.82316 1.34573 3.03386 2.05857ZM2.36361 1.31643C3.3736 0.404274 4.75192 0 5.99986 0C8.07114 0 9.3453 1.11257 9.99986 1.77862C10.6544 1.11257 11.9286 0 13.9999 0C15.2478 0 16.6261 0.404275 17.6361 1.31644C18.6673 2.24776 19.2668 3.66715 18.9948 5.5707C18.7232 7.47217 17.5148 9.31479 15.9293 11.0272C14.3354 12.7486 12.3063 14.3952 10.2999 15.9C10.1221 16.0333 9.87764 16.0333 9.69986 15.9C7.69344 14.3952 5.66434 12.7485 4.0705 11.0272C2.48494 9.31478 1.27656 7.47217 1.00489 5.57072C0.732921 3.66716 1.3324 2.24776 2.36361 1.31643Z"/>
  </symbol>

  <symbol id="basket" viewBox="0 0 16 16">
    <path d="M0.5 3C0.5 2.72386 0.723858 2.5 1 2.5H15C15.2761 2.5 15.5 2.72386 15.5 3C15.5 3.27614 15.2761 3.5 15 3.5H1C0.723858 3.5 0.5 3.27614 0.5 3Z"/>
    <path d="M1.4584 2.5H14.5059L13.6411 13.6926C13.5405 14.9947 12.4546 16 11.1486 16H4.84639C3.54299 16 2.45829 14.9986 2.35435 13.6994L1.4584 2.5ZM2.5416 3.5L3.35117 13.6196C3.41353 14.3992 4.06435 15 4.84639 15H11.1486C11.9322 15 12.5837 14.3968 12.6441 13.6155L13.4256 3.5H2.5416Z"/>
    <path d="M11 3.5H5V1.46875C5 0.657582 5.65758 0 6.46875 0H9.53125C10.3424 0 11 0.657582 11 1.46875V3.5ZM6.46875 1C6.20987 1 6 1.20987 6 1.46875V2.5H10V1.46875C10 1.20987 9.79013 1 9.53125 1H6.46875Z"/>
  </symbol>

  <symbol id="house" viewBox="0 0 23 22">
    <path d="M1.39249 10.7635C0.435262 11.7047 1.10172 13.333 2.44418 13.333H2.99997V19.3332C2.99997 20.4378 3.89541 21.3332 4.99997 21.3332H9.24997C9.52612 21.3332 9.74997 21.1093 9.74997 20.8332V17.7433C9.74997 16.6387 10.6454 15.7433 11.75 15.7433H12.25C13.3545 15.7433 14.25 16.6387 14.25 17.7433V20.8332C14.25 21.1093 14.4738 21.3332 14.75 21.3332H19C20.1045 21.3332 21 20.4378 21 19.3332V13.333H21.3787C22.7151 13.333 23.3843 11.7173 22.4393 10.7724L12.7012 1.03434C12.313 0.646147 11.6844 0.643503 11.2929 1.02842L1.39249 10.7635Z"/>
  </symbol>

  <symbol id="catalog" viewBox="0 0 29 29">
      <path fill-rule="evenodd" clip-rule="evenodd" d="M20.2961 17.8333L23.1846 20.7217C23.2211 20.7583 23.2568 20.7955 23.2914 20.8333H27C27.8285 20.8333 28.5 20.1617 28.5 19.3333C28.5 18.5048 27.8285 17.8333 27 17.8333H20.2961ZM20.1278 8.83325C19.7007 7.73683 19.1026 6.72591 18.3662 5.83325H27C27.8285 5.83325 28.5 6.50482 28.5 7.33325C28.5 8.16168 27.8285 8.83325 27 8.83325H20.1278ZM20.8735 12.82C20.8735 12.4874 20.8587 12.1583 20.8298 11.8333H27C27.8285 11.8333 28.5 12.5048 28.5 13.3333C28.5 14.1617 27.8285 14.8333 27 14.8333H20.6891C20.8103 14.1799 20.8735 13.5068 20.8735 12.82Z"/>
      <path fill-rule="evenodd" clip-rule="evenodd" d="M4.3999 12.82C4.3999 9.78974 6.85639 7.33325 9.88663 7.33325C12.9169 7.33325 15.3734 9.78974 15.3734 12.82C15.3734 15.8502 12.9169 18.3067 9.88663 18.3067C6.85639 18.3067 4.3999 15.8502 4.3999 12.82ZM0.899902 12.82C0.899902 7.85675 4.9234 3.83325 9.88663 3.83325C14.8499 3.83325 18.8734 7.85675 18.8734 12.82C18.8734 14.1704 18.5755 15.4513 18.0419 16.6004C17.7159 17.3024 17.7875 18.1533 18.3348 18.7006L21.7702 22.136C22.3872 22.753 22.3872 23.7535 21.7702 24.3705C21.1531 24.9876 20.1527 24.9876 19.5356 24.3705L16.2116 21.0465C15.6412 20.4761 14.7457 20.4241 14.0301 20.7966C12.7903 21.4419 11.3811 21.8067 9.88663 21.8067C4.9234 21.8067 0.899902 17.7832 0.899902 12.82Z"/>
  </symbol>

  <symbol id="cart" viewBox="0 0 26 23">
    <path fill-rule="evenodd" clip-rule="evenodd" d="M9.32481 15.4744C9.48953 15.9686 9.99003 16.2688 10.5036 16.1814L23.1601 14.0281C23.596 13.954 23.9396 13.616 24.0209 13.1813L25.5023 5.25891C25.5592 4.95471 25.3289 4.67241 25.0194 4.66708L6.35686 4.34608C5.99275 4.33982 5.7318 4.69539 5.84695 5.04086L9.32481 15.4744Z"/>
    <path fill-rule="evenodd" clip-rule="evenodd" d="M22.75 22.3333C23.9926 22.3333 25 21.3259 25 20.0833C25 18.8406 23.9926 17.8333 22.75 17.8333C21.5074 17.8333 20.5 18.8406 20.5 20.0833C20.5 21.3259 21.5074 22.3333 22.75 22.3333Z"/>
    <path fill-rule="evenodd" clip-rule="evenodd" d="M9.75 22.3333C10.9926 22.3333 12 21.3259 12 20.0833C12 18.8406 10.9926 17.8333 9.75 17.8333C8.50736 17.8333 7.5 18.8406 7.5 20.0833C7.5 21.3259 8.50736 22.3333 9.75 22.3333Z"/>
    <path fill-rule="evenodd" clip-rule="evenodd" d="M1.45442 0.56046C2.1177 0.418327 3.01745 0.333252 4 0.333252C4.98255 0.333252 5.8823 0.418327 6.54558 0.56046C6.87345 0.630717 7.16489 0.719266 7.38495 0.830753C7.4917 0.884835 7.61185 0.959005 7.71511 1.06714C7.80017 1.15621 8 1.40237 8 1.83325C8 2.26413 7.80017 2.5103 7.71511 2.59937C7.61185 2.7075 7.4917 2.78167 7.38495 2.83575C7.16489 2.94724 6.87345 3.03579 6.54558 3.10604C5.8823 3.24818 4.98255 3.33325 4 3.33325C3.01745 3.33325 2.1177 3.24818 1.45442 3.10604C1.12655 3.03579 0.835108 2.94724 0.615051 2.83575C0.508302 2.78167 0.388151 2.7075 0.284892 2.59937C0.199835 2.5103 0 2.26413 0 1.83325C0 1.40237 0.199835 1.15621 0.284892 1.06714C0.388151 0.959005 0.508302 0.884835 0.615051 0.830753C0.835108 0.719266 1.12655 0.630717 1.45442 0.56046Z"/>
  </symbol>

  <symbol id="heart" viewBox="0 0 23 20">
    <path d="M11.9791 19.7496C11.6019 20.0835 11.0344 20.0835 10.6576 19.7491C5.25224 14.9528 0.5 10.2808 0.5 6.31149C0.5 2.94183 3.11818 0.333252 6.50011 0.333252C8.15842 0.333252 9.81673 1.02852 11.007 2.18601C11.2282 2.40108 11.59 2.40108 11.8112 2.18601C13.0015 1.02852 14.6599 0.333252 16.3182 0.333252C19.7 0.333252 22.3182 2.94183 22.3182 6.31149C22.3182 10.2809 17.3979 14.9531 11.9791 19.7496Z"/>
  </symbol>

  <symbol id="person" viewBox="0 0 23 22">
    <path fill-rule="evenodd" clip-rule="evenodd" d="M0.800049 19.7061C0.800049 20.7739 1.54488 21.3333 3.62764 21.3333H19.9725C22.0552 21.3333 22.8 20.7739 22.8 19.7061C22.8 16.6044 18.5656 12.3333 11.8069 12.3333C5.03453 12.3333 0.800049 16.6044 0.800049 19.7061Z"/>
    <path fill-rule="evenodd" clip-rule="evenodd" d="M16.8 5.26675C16.8 8.12044 14.4913 10.3333 11.8001 10.3333C9.10879 10.3333 6.80006 8.12044 6.80006 5.29093C6.78692 2.4977 9.12199 0.333252 11.8001 0.333252C14.4781 0.333252 16.8 2.44933 16.8 5.26675Z"/>
  </symbol>

  <symbol id="star" viewBox="0 0 12 11">
    <path d="M6.69769 0.482467C6.43817 -0.138352 5.56198 -0.138361 5.30244 0.482439L6.69769 0.482467ZM5.30244 0.482439L4.14719 3.24303L1.19202 3.49939C0.519264 3.55792 0.262282 4.39291 0.759713 4.82789L3.00514 6.7924L2.33207 9.71562C2.18436 10.3571 2.87792 10.89 3.46133 10.5356L6.00032 8.98936L8.53797 10.5348C9.12269 10.892 9.81568 10.3559 9.66861 9.71586L8.99549 6.79241L11.2402 4.82862C11.7385 4.39286 11.4793 3.55844 10.8083 3.49992L7.85294 3.24355L6.69769 0.482467"/>
  </symbol>

  <symbol id="pencil" viewBox="0 0 16 16">
    <path fill-rule="evenodd" clip-rule="evenodd" d="M11.1585 1.05991L14.9401 4.84154L4.72705 15.0546L0.735435 15.8529C0.385575 15.9229 0.0771149 15.6144 0.147087 15.2646L0.94541 11.273L11.1585 1.05991ZM2.17707 11.9321L11.1585 2.95072L13.0493 4.84154L4.06789 13.8229L1.70436 14.2956L2.17707 11.9321Z"/>
    <path fill-rule="evenodd" clip-rule="evenodd" d="M13.9948 5.78715L10.2132 2.00552L11.6313 0.587402C12.4145 -0.195801 13.6843 -0.195801 14.4675 0.587402L15.4129 1.53281C16.1961 2.31601 16.1961 3.58584 15.4129 4.36904L13.9948 5.78715ZM14.4675 3.42363C14.7286 3.16256 14.7286 2.73929 14.4675 2.47822L13.5221 1.53281C13.261 1.27174 12.8378 1.27174 12.5767 1.53281L12.104 2.00552L13.9948 3.89634L14.4675 3.42363Z"/>
  </symbol>

</symbol></svg>