<svg width="29" height="22" viewBox="0 0 29 22" fill="none" xmlns="http://www.w3.org/2000/svg">
<path fill-rule="evenodd" clip-rule="evenodd" d="M20.2961 14.8333L23.1846 17.7217C23.2211 17.7583 23.2568 17.7955 23.2914 17.8333H27C27.8285 17.8333 28.5 17.1617 28.5 16.3333C28.5 15.5048 27.8285 14.8333 27 14.8333H20.2961ZM20.1278 5.83325C19.7007 4.73683 19.1026 3.72591 18.3662 2.83325H27C27.8285 2.83325 28.5 3.50482 28.5 4.33325C28.5 5.16168 27.8285 5.83325 27 5.83325H20.1278ZM20.8735 9.81998C20.8735 9.48741 20.8587 9.1583 20.8298 8.83325H27C27.8285 8.83325 28.5 9.50482 28.5 10.3333C28.5 11.1617 27.8285 11.8333 27 11.8333H20.6891C20.8103 11.1799 20.8735 10.5068 20.8735 9.81998Z" fill="#CCCCCC"/>
<path fill-rule="evenodd" clip-rule="evenodd" d="M4.3999 9.81998C4.3999 6.78974 6.85639 4.33325 9.88663 4.33325C12.9169 4.33325 15.3734 6.78974 15.3734 9.81998C15.3734 12.8502 12.9169 15.3067 9.88663 15.3067C6.85639 15.3067 4.3999 12.8502 4.3999 9.81998ZM0.899902 9.81998C0.899902 4.85675 4.9234 0.833252 9.88663 0.833252C14.8499 0.833252 18.8734 4.85675 18.8734 9.81998C18.8734 11.1704 18.5755 12.4513 18.0419 13.6004C17.7159 14.3024 17.7875 15.1533 18.3348 15.7006L21.7702 19.136C22.3872 19.753 22.3872 20.7535 21.7702 21.3705C21.1531 21.9876 20.1527 21.9876 19.5356 21.3705L16.2116 18.0465C15.6412 17.4761 14.7457 17.4241 14.0301 17.7966C12.7903 18.4419 11.3811 18.8067 9.88663 18.8067C4.9234 18.8067 0.899902 14.7832 0.899902 9.81998Z" fill="#CCCCCC"/>
</svg>
